<?xml version="1.0" standalone="no"?>
<!DOCTYPE svg PUBLIC "-//W3C//DTD SVG 20010904//EN"
 "http://www.w3.org/TR/2001/REC-SVG-20010904/DTD/svg10.dtd">
<svg version="1.0" xmlns="http://www.w3.org/2000/svg"
 width="512.000000pt" height="344.000000pt" viewBox="0 0 512.000000 344.000000"
 preserveAspectRatio="xMidYMid meet">

<g transform="translate(0.000000,344.000000) scale(0.100000,-0.100000)"
fill="#000000" stroke="none">
<path d="M1710 3349 c-166 -20 -333 -117 -437 -254 -103 -135 -148 -280 -140
-450 12 -280 188 -515 459 -613 66 -24 86 -27 213 -27 111 0 151 4 195 19 227
77 386 234 457 451 34 106 38 263 8 375 l-20 75 -6 -80 c-3 -44 -12 -98 -19
-120 -43 -132 -137 -248 -248 -304 -73 -37 -80 -38 -84 -10 -4 31 -50 63 -77
54 -34 -10 -51 -34 -51 -71 0 -32 -2 -34 -32 -34 -43 0 -60 11 -48 30 6 8 10
32 10 53 0 67 -68 112 -131 87 -35 -15 -59 -46 -59 -77 0 -29 -3 -29 -56 8
-87 59 -162 177 -190 295 -15 68 -11 83 22 84 26 0 59 51 59 92 0 33 -6 45
-34 70 l-33 29 28 57 c53 108 154 192 314 260 l25 11 -30 -1 c-16 0 -59 -4
-95 -9z"/>
<path d="M3175 3151 c-17 -137 -18 -140 -44 -145 -14 -3 -78 -13 -141 -22 -63
-9 -116 -17 -118 -19 -1 -1 62 -11 140 -21 l143 -19 20 -145 c23 -158 26 -157
46 5 18 151 5 138 166 160 153 21 151 23 -28 46 -54 6 -103 15 -109 19 -6 4
-19 66 -30 139 -10 73 -20 134 -22 137 -3 2 -13 -59 -23 -135z"/>
<path d="M1583 3093 c-18 -7 -16 -42 3 -50 8 -3 23 1 31 10 13 13 14 19 3 31
-13 17 -17 18 -37 9z"/>
<path d="M1626 2954 c-9 -8 -16 -19 -16 -24 0 -14 30 -40 45 -40 12 0 35 29
35 44 0 8 -31 36 -40 36 -5 0 -16 -7 -24 -16z"/>
<path d="M1531 2771 c-37 -37 -22 -90 29 -106 27 -8 59 11 71 43 22 57 -57
106 -100 63z"/>
<path d="M1742 2778 c-19 -19 -15 -66 7 -78 11 -5 24 -10 30 -10 16 0 51 38
51 54 0 37 -61 61 -88 34z"/>
<path d="M1938 2694 c-51 -27 -50 -102 2 -129 26 -14 34 -14 65 -1 58 24 61
102 5 131 -35 18 -38 18 -72 -1z"/>
<path d="M1605 2597 c-26 -20 -16 -61 16 -65 29 -3 54 20 46 42 -10 25 -42 37
-62 23z"/>
<path d="M2615 2539 c-38 -5 -72 -13 -76 -17 -8 -8 -50 -134 -46 -138 1 -1 34
4 72 13 96 20 294 12 390 -16 209 -62 396 -210 500 -396 34 -62 77 -176 88
-232 6 -30 4 -34 -33 -53 -22 -11 -41 -20 -43 -20 -3 0 -17 35 -32 78 -44 125
-98 207 -204 312 -83 83 -110 103 -201 148 -58 29 -132 59 -165 68 -82 22
-271 30 -356 14 -65 -11 -70 -14 -104 -60 -50 -69 -151 -159 -226 -203 -70
-41 -189 -82 -268 -93 l-51 -7 -15 -51 c-7 -28 -19 -69 -25 -91 -6 -22 -13
-89 -16 -150 -11 -188 37 -382 132 -535 24 -39 44 -75 44 -79 0 -9 -191 -63
-305 -86 -99 -21 -221 -30 -269 -21 -22 4 -42 16 -52 32 -15 23 -15 28 1 69
26 70 103 157 285 325 l35 32 -40 -23 c-216 -122 -475 -308 -585 -419 -162
-162 -143 -240 58 -240 478 0 1818 520 2752 1068 336 197 590 386 675 502 161
220 -126 236 -762 43 -84 -26 -152 -48 -150 -49 2 -2 52 3 113 11 129 17 294
18 348 2 21 -7 48 -24 58 -38 20 -26 20 -28 2 -65 -24 -50 -106 -130 -217
-213 -112 -83 -237 -164 -244 -158 -2 3 -19 47 -37 99 -150 436 -570 696
-1031 637z"/>
<path d="M2120 2525 c-10 -12 -10 -18 0 -30 16 -19 39 -19 46 0 6 15 -11 45
-26 45 -4 0 -13 -7 -20 -15z"/>
<path d="M1387 1930 c-3 -19 -11 -73 -18 -120 -6 -47 -16 -88 -22 -91 -5 -4
-58 -12 -118 -19 -60 -7 -107 -15 -104 -18 3 -3 56 -13 118 -22 l112 -15 17
-113 c9 -62 18 -117 20 -124 3 -7 10 35 17 93 20 154 11 144 136 159 58 7 108
16 110 20 2 4 -42 13 -99 20 -58 7 -109 16 -116 20 -6 4 -18 54 -26 111 -19
138 -19 139 -27 99z"/>
<path d="M4071 1558 c-22 -159 -21 -156 -44 -161 -12 -3 -67 -11 -122 -18
-114 -14 -107 -21 42 -39 l101 -12 12 -87 c25 -177 25 -177 39 -76 25 174 16
158 101 171 194 29 189 25 52 45 -68 10 -125 19 -127 21 -2 2 -10 54 -19 117
-9 63 -18 116 -20 118 -2 2 -9 -33 -15 -79z"/>
<path d="M3619 1483 l-66 -36 -18 -75 c-18 -79 -98 -246 -140 -297 -23 -27
-22 -23 10 45 36 78 75 213 75 262 l0 28 -167 -84 c-301 -150 -701 -325 -1021
-446 l-112 -43 52 -35 c70 -48 179 -97 274 -124 68 -19 103 -23 244 -23 143 0
176 3 244 23 217 63 416 202 535 375 82 120 166 350 159 434 l-3 32 -66 -36z"/>
<path d="M4471 1253 c-15 -114 -4 -104 -129 -119 -59 -6 -97 -24 -53 -24 11 0
54 -5 95 -11 l74 -11 13 -101 c14 -109 21 -106 34 17 4 35 10 68 14 75 4 6 46
17 94 23 48 6 87 15 87 18 0 4 -39 12 -86 17 -48 6 -90 16 -94 23 -4 7 -11 41
-15 76 -13 123 -20 126 -34 17z"/>
<path d="M3651 1143 c-29 -64 -124 -193 -193 -261 -75 -76 -186 -156 -257
-188 -23 -10 -41 -22 -41 -27 0 -21 105 -116 157 -143 53 -26 67 -29 158 -29
89 0 106 3 157 28 74 36 139 101 175 175 25 51 28 67 28 162 0 101 -1 108 -34
168 -30 55 -110 142 -131 142 -4 0 -12 -12 -19 -27z"/>
<path d="M4215 880 l-10 -55 -48 -7 c-54 -7 -74 -18 -35 -18 14 0 39 -3 56 -6
28 -6 31 -10 39 -63 l9 -56 8 56 c7 53 10 57 38 63 17 3 42 6 57 7 23 0 24 1
6 9 -11 5 -35 9 -53 9 -35 1 -35 2 -49 71 l-8 45 -10 -55z"/>
<path d="M1991 627 c-6 -50 -15 -95 -19 -98 -6 -6 -155 -29 -185 -29 -6 0 -8
-2 -6 -4 2 -3 45 -10 94 -16 50 -7 93 -15 97 -19 4 -3 13 -48 19 -98 7 -51 14
-91 16 -89 2 2 8 32 13 67 6 35 12 78 15 95 l5 31 103 13 102 14 -75 12 c-41
7 -87 13 -102 13 -29 1 -27 -5 -48 130 -5 35 -11 65 -13 67 -2 2 -9 -38 -16
-89z"/>
<path d="M2260 268 c0 -58 -7 -67 -63 -74 -39 -5 -47 -9 -32 -15 11 -4 34 -8
51 -8 34 -1 44 -18 44 -74 0 -16 4 -26 10 -22 6 3 10 21 10 38 0 45 9 53 65
62 l50 8 -55 11 c-55 11 -55 11 -58 51 -4 53 -22 71 -22 23z"/>
</g>
</svg>
